0
SECTION
2
HEADER
9
$INSUNITS
70
4
9
$ACADVER
1
AC1014
9
$HANDSEED
5
FFFF
0
ENDSEC
0
SECTION
2
TABLES
0
TABLE
2
VPORT
5
8
100
AcDbSymbolTable
0
ENDTAB
0
TABLE
2
LTYPE
5
5
100
AcDbSymbolTable
0
LTYPE
5
14
100
AcDbSymbolTableRecord
100
AcDbLinetypeTableRecord
2
BYBLOCK
70
0
0
LTYPE
5
15
100
AcDbSymbolTableRecord
100
AcDbLinetypeTableRecord
2
BYLAYER
70
0
0
ENDTAB
0
TABLE
2
LAYER
5
2
100
AcDbSymbolTable
70
2
0
LAYER
5
50
100
AcDbSymbolTableRecord
100
AcDbLayerTableRecord
2
0
70
0
6
CONTINUOUS
0
ENDTAB
0
TABLE
2
STYLE
5
3
100
AcDbSymbolTable
70
1
0
STYLE
5
11
100
AcDbSymbolTableRecord
100
AcDbTextStyleTableRecord
2
STANDARD
70
0
0
ENDTAB
0
TABLE
2
VIEW
5
6
100
AcDbSymbolTable
70
0
0
ENDTAB
0
TABLE
2
UCS
5
7
100
AcDbSymbolTable
70
0
0
ENDTAB
0
TABLE
2
APPID
5
9
100
AcDbSymbolTable
70
2
0
APPID
5
12
100
AcDbSymbolTableRecord
100
AcDbRegAppTableRecord
2
ACAD
70
0
0
ENDTAB
0
TABLE
2
DIMSTYLE
5
A
100
AcDbSymbolTable
70
1
0
ENDTAB
0
TABLE
2
BLOCK_RECORD
5
1
100
AcDbSymbolTable
70
1
0
BLOCK_RECORD
5
1F
100
AcDbSymbolTableRecord
100
AcDbBlockTableRecord
2
*MODEL_SPACE
0
BLOCK_RECORD
5
1B
100
AcDbSymbolTableRecord
100
AcDbBlockTableRecord
2
*PAPER_SPACE
0
ENDTAB
0
ENDSEC
0
SECTION
2
BLOCKS
0
BLOCK
5
20
100
AcDbEntity
100
AcDbBlockBegin
2
*MODEL_SPACE
0
ENDBLK
5
21
100
AcDbEntity
100
AcDbBlockEnd
0
BLOCK
5
1C
100
AcDbEntity
100
AcDbBlockBegin
2
*PAPER_SPACE
0
ENDBLK
5
1D
100
AcDbEntity
100
AcDbBlockEnd
0
ENDSEC
0
SECTION
2
ENTITIES
0
CIRCLE
5
100
100
AcDbEntity
8
0
100
AcDbCircle
10
-65.837302741277711
20
-2.0785033290720389
30
0
40
1.1000000000000032
210
0
220
-0
230
1
0
CIRCLE
5
101
100
AcDbEntity
8
0
100
AcDbCircle
10
44.99495161530524
20
24.01273323806809
30
0
40
1.1000000000000032
210
0
220
-0
230
1
0
CIRCLE
5
102
100
AcDbEntity
8
0
100
AcDbCircle
10
-1.6588999999999909
20
-54.649999000000008
30
0
40
1.0999999999999999
210
0
220
-0
230
1
0
CIRCLE
5
103
100
AcDbEntity
8
0
100
AcDbCircle
10
-25.675899999999999
20
4.0399990000000026
30
0
40
1.1000000000000032
210
0
220
-0
230
1
0
CIRCLE
5
104
100
AcDbEntity
8
0
100
AcDbCircle
10
-65.837302741277711
20
-40.178503329072043
30
0
40
1.1000000000000032
210
0
220
-0
230
1
0
LWPOLYLINE
5
105
100
AcDbEntity
8
0
100
AcDbPolyline
90
25
70
1
43
0.0
10
-41.501411408396798
20
18.071486670927964
10
-84.887302741277722
20
18.071486670928046
42
0.4142135623730962
10
-85.987302741277716
20
16.971486670928037
10
-85.987302741277759
20
-40.582260773588423
42
0.27600759101214423
10
-85.408467801472213
20
-41.550964536372717
42
0.030622052826735708
10
-67.940909783239192
20
-49.61191226190023
42
0.005982518399367755
10
-64.4190670696577
20
-50.934209128452572
42
0.15290575585430757
10
29.445185212084972
20
-55.042840530285808
42
0.34003489534485204
10
30.262697258722358
20
-53.979731619493911
10
30.26269725872233
20
-50.004714990931461
42
-0.41421356237308926
10
31.162697258722346
20
-49.104714990931448
10
47.162697258722197
20
-49.104714990931328
42
0.4142135623730927
10
48.262697258722199
20
-48.004714990931312
10
48.262697258722191
20
1.8424526651771702
42
-0.25721751850658137
10
48.681768753542123
20
2.6031811140373406
42
0.055467239404361372
10
67.951037437818059
20
18.013423568205447
10
74.686229528620117
20
24.74861565900758
42
0.41421356237310425
10
74.686229528620103
20
26.304250577617982
10
47.745461165412038
20
53.245018940825645
42
0.41421356237311013
10
46.189826246801587
20
53.245018940825595
10
39.454634156002307
20
46.509826850025689
42
-0.19891236737966977
10
-10.926411408396891
20
25.641314490713452
10
-39.501411408396791
20
25.641314490713512
42
0.41421356237309503
10
-40.601411408396771
20
24.541314490713525
10
-40.6014114083968
20
18.971486670927963
42
-0.41421356237309576
0
ENDSEC
0
SECTION
2
OBJECTS
0
DICTIONARY
5
C
100
AcDbDictionary
3
ACAD_GROUP
350
D
3
ACAD_MLINESTYLE
350
17
0
DICTIONARY
5
D
100
AcDbDictionary
0
DICTIONARY
5
1A
330
C
100
AcDbDictionary
0
DICTIONARY
5
17
100
AcDbDictionary
0
ENDSEC
0
EOF
