0
SECTION
2
HEADER
9
$INSUNITS
70
4
9
$ACADVER
1
AC1014
9
$HANDSEED
5
FFFF
0
ENDSEC
0
SECTION
2
TABLES
0
TABLE
2
VPORT
5
8
100
AcDbSymbolTable
0
ENDTAB
0
TABLE
2
LTYPE
5
5
100
AcDbSymbolTable
0
LTYPE
5
14
100
AcDbSymbolTableRecord
100
AcDbLinetypeTableRecord
2
BYBLOCK
70
0
0
LTYPE
5
15
100
AcDbSymbolTableRecord
100
AcDbLinetypeTableRecord
2
BYLAYER
70
0
0
ENDTAB
0
TABLE
2
LAYER
5
2
100
AcDbSymbolTable
70
2
0
LAYER
5
50
100
AcDbSymbolTableRecord
100
AcDbLayerTableRecord
2
0
70
0
6
CONTINUOUS
0
ENDTAB
0
TABLE
2
STYLE
5
3
100
AcDbSymbolTable
70
1
0
STYLE
5
11
100
AcDbSymbolTableRecord
100
AcDbTextStyleTableRecord
2
STANDARD
70
0
0
ENDTAB
0
TABLE
2
VIEW
5
6
100
AcDbSymbolTable
70
0
0
ENDTAB
0
TABLE
2
UCS
5
7
100
AcDbSymbolTable
70
0
0
ENDTAB
0
TABLE
2
APPID
5
9
100
AcDbSymbolTable
70
2
0
APPID
5
12
100
AcDbSymbolTableRecord
100
AcDbRegAppTableRecord
2
ACAD
70
0
0
ENDTAB
0
TABLE
2
DIMSTYLE
5
A
100
AcDbSymbolTable
70
1
0
ENDTAB
0
TABLE
2
BLOCK_RECORD
5
1
100
AcDbSymbolTable
70
1
0
BLOCK_RECORD
5
1F
100
AcDbSymbolTableRecord
100
AcDbBlockTableRecord
2
*MODEL_SPACE
0
BLOCK_RECORD
5
1B
100
AcDbSymbolTableRecord
100
AcDbBlockTableRecord
2
*PAPER_SPACE
0
ENDTAB
0
ENDSEC
0
SECTION
2
BLOCKS
0
BLOCK
5
20
100
AcDbEntity
100
AcDbBlockBegin
2
*MODEL_SPACE
0
ENDBLK
5
21
100
AcDbEntity
100
AcDbBlockEnd
0
BLOCK
5
1C
100
AcDbEntity
100
AcDbBlockBegin
2
*PAPER_SPACE
0
ENDBLK
5
1D
100
AcDbEntity
100
AcDbBlockEnd
0
ENDSEC
0
SECTION
2
ENTITIES
0
CIRCLE
5
100
100
AcDbEntity
8
0
100
AcDbCircle
10
-9.5480009999999993
20
-13.406799999999999
30
0
40
21.050000000000001
210
0
220
-0
230
1
0
CIRCLE
5
101
100
AcDbEntity
8
0
100
AcDbCircle
10
-1.6588999999999909
20
-54.649999000000008
30
0
40
1.2
210
0
220
-0
230
1
0
CIRCLE
5
102
100
AcDbEntity
8
0
100
AcDbCircle
10
-65.837302741277711
20
-40.178503329072043
30
0
40
1.2000000000000011
210
0
220
-0
230
1
0
CIRCLE
5
103
100
AcDbEntity
8
0
100
AcDbCircle
10
-25.675899999999999
20
4.0399990000000026
30
0
40
1.2000000000000011
210
0
220
-0
230
1
0
CIRCLE
5
104
100
AcDbEntity
8
0
100
AcDbCircle
10
-65.837302741277711
20
-2.0785033290720389
30
0
40
1.2000000000000011
210
0
220
-0
230
1
0
CIRCLE
5
105
100
AcDbEntity
8
0
100
AcDbCircle
10
44.99495161530524
20
24.01273323806809
30
0
40
1.2000000000000011
210
0
220
-0
230
1
0
LWPOLYLINE
5
106
100
AcDbEntity
8
0
100
AcDbPolyline
90
24
70
1
43
0.0
10
47.162697258722197
20
-49.004714990931319
42
0.41421356237309243
10
48.16269725872219
20
-48.004714990931312
10
48.16269725872219
20
2.3949402357538219
42
0.056704921072053639
10
67.880326759699386
20
18.084134246324073
10
74.615518850501445
20
24.819326337126235
42
0.41421356237310702
10
74.615518850501445
20
26.233539899499331
10
47.674750487293394
20
53.174308262706987
42
0.41421356237311341
10
46.260536924920245
20
53.174308262706944
10
39.525344834120943
20
46.43911617190706
42
-0.19891236737966977
10
-10.926411408396897
20
25.541314490713471
10
-39.501411408396784
20
25.541314490713507
42
0.41421356237309631
10
-40.501411408396777
20
24.541314490713525
10
-40.501411408396805
20
18.971486670927963
42
-0.41421356237309437
10
-41.501411408396798
20
17.971486670927966
10
-84.887302741277722
20
17.971486670928044
42
0.41421356237309631
10
-85.887302741277708
20
16.971486670928037
10
-85.887302741277765
20
-40.582260773588423
42
0.27600759101214462
10
-85.361089159636364
20
-41.462900557937786
42
0.030622052826736388
10
-67.904642397122743
20
-49.518720649057286
42
0.0059825183599534924
10
-64.385039933040744
20
-50.840176400247685
42
0.15290575581396659
10
29.419504511131585
20
-54.94619425980153
42
0.34003488897304018
10
30.162697258722485
20
-53.979731619493911
10
30.162697258722332
20
-50.004714990931461
42
-0.41421356237308982
10
31.162697258722346
20
-49.004714990931447
0
ENDSEC
0
SECTION
2
OBJECTS
0
DICTIONARY
5
C
100
AcDbDictionary
3
ACAD_GROUP
350
D
3
ACAD_MLINESTYLE
350
17
0
DICTIONARY
5
D
100
AcDbDictionary
0
DICTIONARY
5
1A
330
C
100
AcDbDictionary
0
DICTIONARY
5
17
100
AcDbDictionary
0
ENDSEC
0
EOF
