0
SECTION
2
HEADER
9
$INSUNITS
70
4
9
$ACADVER
1
AC1014
9
$HANDSEED
5
FFFF
0
ENDSEC
0
SECTION
2
TABLES
0
TABLE
2
VPORT
5
8
100
AcDbSymbolTable
0
ENDTAB
0
TABLE
2
LTYPE
5
5
100
AcDbSymbolTable
0
LTYPE
5
14
100
AcDbSymbolTableRecord
100
AcDbLinetypeTableRecord
2
BYBLOCK
70
0
0
LTYPE
5
15
100
AcDbSymbolTableRecord
100
AcDbLinetypeTableRecord
2
BYLAYER
70
0
0
ENDTAB
0
TABLE
2
LAYER
5
2
100
AcDbSymbolTable
70
2
0
LAYER
5
50
100
AcDbSymbolTableRecord
100
AcDbLayerTableRecord
2
0
70
0
6
CONTINUOUS
0
ENDTAB
0
TABLE
2
STYLE
5
3
100
AcDbSymbolTable
70
1
0
STYLE
5
11
100
AcDbSymbolTableRecord
100
AcDbTextStyleTableRecord
2
STANDARD
70
0
0
ENDTAB
0
TABLE
2
VIEW
5
6
100
AcDbSymbolTable
70
0
0
ENDTAB
0
TABLE
2
UCS
5
7
100
AcDbSymbolTable
70
0
0
ENDTAB
0
TABLE
2
APPID
5
9
100
AcDbSymbolTable
70
2
0
APPID
5
12
100
AcDbSymbolTableRecord
100
AcDbRegAppTableRecord
2
ACAD
70
0
0
ENDTAB
0
TABLE
2
DIMSTYLE
5
A
100
AcDbSymbolTable
70
1
0
ENDTAB
0
TABLE
2
BLOCK_RECORD
5
1
100
AcDbSymbolTable
70
1
0
BLOCK_RECORD
5
1F
100
AcDbSymbolTableRecord
100
AcDbBlockTableRecord
2
*MODEL_SPACE
0
BLOCK_RECORD
5
1B
100
AcDbSymbolTableRecord
100
AcDbBlockTableRecord
2
*PAPER_SPACE
0
ENDTAB
0
ENDSEC
0
SECTION
2
BLOCKS
0
BLOCK
5
20
100
AcDbEntity
100
AcDbBlockBegin
2
*MODEL_SPACE
0
ENDBLK
5
21
100
AcDbEntity
100
AcDbBlockEnd
0
BLOCK
5
1C
100
AcDbEntity
100
AcDbBlockBegin
2
*PAPER_SPACE
0
ENDBLK
5
1D
100
AcDbEntity
100
AcDbBlockEnd
0
ENDSEC
0
SECTION
2
ENTITIES
0
LWPOLYLINE
5
100
100
AcDbEntity
8
0
100
AcDbPolyline
90
4
70
1
43
0.0
10
-146.3506138479143
20
-16.949999950001363
10
-160.15061374791426
20
-16.949999950001171
10
-160.15061374791432
20
-3.1500000500013181
10
-146.35061384791459
20
-3.1500000500014824
0
LWPOLYLINE
5
101
100
AcDbEntity
8
0
100
AcDbPolyline
90
4
70
1
43
0.0
10
-160.15061374791432
20
-22.200000050001325
10
-146.35061384791459
20
-22.200000050001499
10
-146.3506138479143
20
-35.999999950001381
10
-160.15061374791426
20
-35.999999950001175
0
LWPOLYLINE
5
102
100
AcDbEntity
8
0
100
AcDbPolyline
90
4
70
1
43
0.0
10
-30.920667350530913
20
30.792257119322763
10
-40.678740860194281
20
40.550330628986458
10
-30.920667350530682
20
50.308404138650019
10
-21.16259384086705
20
40.550330628986316
0
CIRCLE
5
103
100
AcDbEntity
8
0
100
AcDbCircle
10
-33.174196972632913
20
25.932241163575611
30
0
40
1.024999949999996
210
0
220
-0
230
1
0
LWPOLYLINE
5
104
100
AcDbEntity
8
0
100
AcDbPolyline
90
4
70
1
43
0.0
10
-51.100613847914445
20
-64.049999950001322
10
-64.900613747914463
20
-64.049999950001236
10
-64.900613747914718
20
-50.250000050001105
10
-51.100613847914659
20
-50.250000050001432
0
LWPOLYLINE
5
105
100
AcDbEntity
8
0
100
AcDbPolyline
90
4
70
1
43
0.0
10
-70.150613847914386
20
-9.39999995000138
10
-83.950613747914375
20
-9.3999999500012059
10
-83.950613747914758
20
4.3999999499989126
10
-70.150613847914528
20
4.3999999499986231
0
LWPOLYLINE
5
106
100
AcDbEntity
8
0
100
AcDbPolyline
90
4
70
1
43
0.0
10
-51.100613847914445
20
-25.949999950001313
10
-64.900613747914463
20
-25.949999950001214
10
-64.900613747914718
20
-12.150000050001101
10
-51.100613847914659
20
-12.150000050001424
0
LWPOLYLINE
5
107
100
AcDbEntity
8
0
100
AcDbPolyline
90
4
70
1
43
0.0
10
-122.05061374791478
20
-34.200000050001066
10
-108.25061384791469
20
-34.200000050001435
10
-108.25061384791442
20
-47.999999950001424
10
-122.05061374791444
20
-47.999999950001154
0
LWPOLYLINE
5
108
100
AcDbEntity
8
0
100
AcDbPolyline
90
4
70
1
43
0.0
10
-59.17328801366304
20
14.480598974150904
10
-72.50306431985959
20
10.90889617761794
10
-76.074767116393033
20
24.238672483814824
10
-62.744990810196285
20
27.810375280348026
0
LWPOLYLINE
5
109
100
AcDbEntity
8
0
100
AcDbPolyline
90
4
70
1
43
0.0
10
-122.05061374791478
20
-53.250000050001063
10
-108.25061384791469
20
-53.250000050001454
10
-108.25061384791442
20
-67.049999950001435
10
-122.05061374791444
20
-67.049999950001165
0
CIRCLE
5
110
100
AcDbEntity
8
0
100
AcDbCircle
10
-68.386305350530904
20
-11.853296177037629
30
0
40
2.0999999999999996
210
0
220
-0
230
1
0
CIRCLE
5
111
100
AcDbEntity
8
0
100
AcDbCircle
10
-143.72561379791446
20
-0.52500000000130598
30
0
40
1.0249999500000051
210
0
220
-0
230
1
0
LWPOLYLINE
5
112
100
AcDbEntity
8
0
100
AcDbPolyline
90
4
70
1
43
0.0
10
-51.100613847914445
20
-44.999999950001317
10
-64.900613747914463
20
-44.999999950001225
10
-64.900613747914718
20
-31.200000050001101
10
-51.100613847914659
20
-31.200000050001432
0
LWPOLYLINE
5
113
100
AcDbEntity
8
0
100
AcDbPolyline
90
7
70
1
43
0.0
10
-122.05061374791478
20
-15.150000050001061
10
-108.35772062910131
20
-15.150000050001442
42
0.012427009271212144
10
-108.32790962088669
20
-15.149259012211626
42
8.8676746420149484e-06
10
-108.32779269763989
20
-15.150000049935848
10
-108.25061384791454
20
-15.150000050001438
10
-108.25061384791442
20
-28.94999995000142
10
-122.05061374791444
20
-28.949999950001164
0
LWPOLYLINE
5
114
100
AcDbEntity
8
0
100
AcDbPolyline
90
4
70
1
43
0.0
10
-127.30061384791449
20
-55.049999950001293
10
-141.10061374791442
20
-55.049999950001236
10
-141.10061374791471
20
-41.250000050001006
10
-127.30061384791442
20
-41.250000050001134
0
LWPOLYLINE
5
115
100
AcDbEntity
8
0
100
AcDbPolyline
90
11
70
1
43
0.0
10
-108.41217199154548
20
-11.016016247128309
42
4.5330281026062496
10
-107.0912113228419
20
-9.8423041918057947
42
-0.2761092055571292
10
-107.48927422051861
20
-9.742100811855483
10
-108.13345651038972
20
-9.097918521984333
42
-0.19891236712617405
10
-108.25061379791512
20
-8.8150758098998505
10
-108.25061384752453
20
3.8999999499985627
10
-122.05061374791478
20
3.8999999499989411
10
-122.05061374791444
20
-9.899999950781492
10
-109.33553803840687
20
-9.9000000500014025
42
-0.19891236737964405
10
-109.05269532593226
20
-10.017157337526793
10
-108.49616102021648
20
-10.573691643242586
42
-0.30810462667499111
0
LWPOLYLINE
5
116
100
AcDbEntity
8
0
100
AcDbPolyline
90
4
70
1
43
0.0
10
-40.878018770991943
20
1.6155794980347338
10
-47.778018720992051
20
13.566729983657893
10
-35.826868235369304
20
20.466729933657902
10
-28.926868285369238
20
8.5155794480347566
0
CIRCLE
5
117
100
AcDbEntity
8
0
100
AcDbCircle
10
-103.56420435053045
20
5.593502822963333
30
0
40
1.0999999999999943
210
0
220
-0
230
1
0
LWPOLYLINE
5
118
100
AcDbEntity
8
0
100
AcDbPolyline
90
4
70
1
43
0.0
10
-141.10061374791471
20
-22.200000050001002
10
-127.30061384791442
20
-22.200000050001123
10
-127.30061384791449
20
-35.999999950001289
10
-141.10061374791442
20
-35.999999950001218
0
LWPOLYLINE
5
119
100
AcDbEntity
8
0
100
AcDbPolyline
90
4
70
1
43
0.0
10
-146.3506138479143
20
2.1000000499986404
10
-160.15061374791426
20
2.1000000499988314
10
-160.15061374791432
20
15.899999949998683
10
-146.35061384791459
20
15.899999949998511
0
LWPOLYLINE
5
120
100
AcDbEntity
8
0
100
AcDbPolyline
90
4
70
1
43
0.0
10
-146.35061384791459
20
-41.250000050001496
10
-146.3506138479143
20
-55.049999950001371
10
-160.15061374791426
20
-55.04999995000118
10
-160.15061374791432
20
-41.250000050001326
0
LWPOLYLINE
5
121
100
AcDbEntity
8
0
100
AcDbPolyline
90
4
70
1
43
0.0
10
-103.0006137479148
20
-59.250000050001184
10
-89.200613847914838
20
-59.250000050001574
10
-89.20061384791461
20
-73.049999950001322
10
-103.00061374791463
20
-73.049999950001251
0
LWPOLYLINE
5
122
100
AcDbEntity
8
0
100
AcDbPolyline
90
4
70
1
43
0.0
10
-103.0006137479148
20
-40.200000050001172
10
-89.200613847914838
20
-40.20000005000157
10
-89.20061384791461
20
-53.999999950001325
10
-103.00061374791463
20
-53.999999950001254
0
LWPOLYLINE
5
123
100
AcDbEntity
8
0
100
AcDbPolyline
90
4
70
1
43
0.0
10
-70.150613847914386
20
-47.499999950001389
10
-83.950613747914375
20
-47.499999950001211
10
-83.950613747914758
20
-33.700000050001094
10
-70.150613847914528
20
-33.700000050001393
0
LWPOLYLINE
5
124
100
AcDbEntity
8
0
100
AcDbPolyline
90
4
70
1
43
0.0
10
-70.150613847914386
20
-28.449999950001388
10
-83.950613747914375
20
-28.449999950001207
10
-83.950613747914758
20
-14.65000005000109
10
-70.150613847914528
20
-14.650000050001374
0
LWPOLYLINE
5
125
100
AcDbEntity
8
0
100
AcDbPolyline
90
8
70
1
43
0.0
10
-88.582324446334212
20
-32.663023494565429
42
1.8446148238250459
10
-88.58232444633407
20
-29.143568859508704
42
-0.5953753907485837
10
-89.200613797915551
20
-28.808382704433484
10
-89.200613847270375
20
-21.150000050001559
10
-103.0006137479148
20
-21.150000050001179
10
-103.00061374791463
20
-34.949999950001249
10
-89.200613845477775
20
-34.949999950001313
10
-89.200613797915636
20
-32.998209650285091
42
-0.595375391294097
0
LWPOLYLINE
5
126
100
AcDbEntity
8
0
100
AcDbPolyline
90
4
70
1
43
0.0
10
-127.30061384791449
20
2.1000000499987181
10
-141.10061374791442
20
2.1000000499987803
10
-141.10061374791471
20
15.899999949999003
10
-127.30061384791442
20
15.899999949998879
0
LWPOLYLINE
5
127
100
AcDbEntity
8
0
100
AcDbPolyline
90
4
70
1
43
0.0
10
-103.0006137479148
20
-2.1000000500011629
10
-89.200613847914838
20
-2.1000000500015492
10
-89.20061384791461
20
-15.899999950001307
10
-103.00061374791483
20
-15.899999950001252
0
LWPOLYLINE
5
128
100
AcDbEntity
8
0
100
AcDbPolyline
90
4
70
1
43
0.0
10
-50.403018770991878
20
18.113363440128335
10
-57.303018720992029
20
30.064513925751491
10
-45.351868235369238
20
36.964513875751514
10
-38.451868285369173
20
25.013363390128362
0
CIRCLE
5
129
100
AcDbEntity
8
0
100
AcDbCircle
10
-143.72561379791443
20
-57.675000000001297
30
0
40
1.0249999500000051
210
0
220
-0
230
1
0
LWPOLYLINE
5
130
100
AcDbEntity
8
0
100
AcDbPolyline
90
4
70
1
43
0.0
10
-64.900613747914718
20
6.8999999499989029
10
-51.100613847914659
20
6.8999999499985787
10
-51.100613847914445
20
-6.8999999500013098
10
-64.900613747914463
20
-6.8999999500012077
0
LWPOLYLINE
5
131
100
AcDbEntity
8
0
100
AcDbPolyline
90
8
70
1
43
0.0
10
-88.609950122405337
20
8.9381279382922418
42
3.2730722339368876
10
-86.2626605786553
20
8.9381279382921335
42
-0.74010780607181736
10
-86.039109193536248
20
9.6698277697834278
10
-81.914722515032636
20
9.6698278674170446
10
-81.914722515032992
20
23.469827769784061
10
-95.714722415033009
20
23.469827769784754
10
-95.714722415032639
20
9.6698278683521011
10
-88.833501506091906
20
9.6698277697834598
42
-0.74010780468616266
0
LWPOLYLINE
5
132
100
AcDbEntity
8
0
100
AcDbPolyline
90
4
70
1
43
0.0
10
-141.10061374791471
20
-3.1500000500009961
10
-127.30061384791442
20
-3.1500000500011183
10
-127.30061384791449
20
-16.949999950001281
10
-141.10061374791442
20
-16.949999950001221
0
LWPOLYLINE
5
133
100
AcDbEntity
8
0
100
AcDbPolyline
90
4
70
1
43
0.0
10
-70.150613847914386
20
-66.549999950001393
10
-83.950613747914375
20
-66.549999950001222
10
-83.950613747914758
20
-52.750000050001105
10
-70.150613847914528
20
-52.750000050001383
0
LWPOLYLINE
5
134
100
AcDbEntity
8
0
100
AcDbPolyline
90
4
70
1
43
0.0
10
-100.96472251503273
20
9.669827869784303
10
-114.76472241503272
20
9.6698278697843385
10
-114.76472241503272
20
23.469827769784285
10
-100.9647225150328
20
23.469827769784267
0
CIRCLE
5
135
100
AcDbEntity
8
0
100
AcDbCircle
10
-64.171511831664787
20
-70.17500000000129
30
0
40
1.0249999500000051
210
0
220
-0
230
1
0
LWPOLYLINE
5
136
100
AcDbEntity
8
0
100
AcDbPolyline
90
4
70
1
43
0.0
10
-17.450283168927161
20
17.321872937719036
10
-27.208356678590508
20
27.079946447382778
10
-17.450283168926948
20
36.838019957046292
10
-7.692209659263316
20
27.079946447382607
0
LWPOLYLINE
5
137
100
AcDbEntity
8
0
100
AcDbPolyline
90
20
70
1
43
0.0
10
-46.316930722094526
20
-5.2446024790397594
42
0.10296311473636185
10
-8.4759714455476818
20
20.32170231372632
10
-8.4695913480763529
20
20.327512386834819
10
-3.6263455967296387
20
25.170758138181547
42
0.41421356237309748
10
-3.6263455967296503
20
28.989134756587799
10
-29.01147904132829
20
54.374268201186027
42
0.41421356237309537
10
-32.829855659735742
20
54.37426820118597
10
-38.787230291231666
20
48.416893569690103
42
-0.19891236737965962
10
-88.814722465040091
20
27.694827819784411
10
-116.28972246503281
20
27.694827819784521
42
0.41421356237309648
10
-118.98972246503284
20
24.994827819784469
10
-118.9897224650328
20
22.424999999999034
42
-0.4142135623730962
10
-121.2897224650328
20
20.124999999999005
10
-161.67561379791499
20
20.124999999999105
42
0.41421356237309648
10
-164.37561379791504
20
17.424999999999145
10
-164.37561379791526
20
-59.377739450814403
42
0.29250998844603004
10
-162.80732582145737
20
-61.829112106240451
42
0.16668475007301722
10
-48.887548189683287
20
-73.510027456150439
42
0.3488621140717113
10
-46.87561379791493
20
-70.977404539012241
10
-46.875613797914454
20
-6.0773706083940304
42
-0.30436341441968384
0
ENDSEC
0
SECTION
2
OBJECTS
0
DICTIONARY
5
C
100
AcDbDictionary
3
ACAD_GROUP
350
D
3
ACAD_MLINESTYLE
350
17
0
DICTIONARY
5
D
100
AcDbDictionary
0
DICTIONARY
5
1A
330
C
100
AcDbDictionary
0
DICTIONARY
5
17
100
AcDbDictionary
0
ENDSEC
0
EOF
