0
SECTION
2
HEADER
9
$INSUNITS
70
4
9
$ACADVER
1
AC1014
9
$HANDSEED
5
FFFF
0
ENDSEC
0
SECTION
2
TABLES
0
TABLE
2
VPORT
5
8
100
AcDbSymbolTable
0
ENDTAB
0
TABLE
2
LTYPE
5
5
100
AcDbSymbolTable
0
LTYPE
5
14
100
AcDbSymbolTableRecord
100
AcDbLinetypeTableRecord
2
BYBLOCK
70
0
0
LTYPE
5
15
100
AcDbSymbolTableRecord
100
AcDbLinetypeTableRecord
2
BYLAYER
70
0
0
ENDTAB
0
TABLE
2
LAYER
5
2
100
AcDbSymbolTable
70
2
0
LAYER
5
50
100
AcDbSymbolTableRecord
100
AcDbLayerTableRecord
2
0
70
0
6
CONTINUOUS
0
ENDTAB
0
TABLE
2
STYLE
5
3
100
AcDbSymbolTable
70
1
0
STYLE
5
11
100
AcDbSymbolTableRecord
100
AcDbTextStyleTableRecord
2
STANDARD
70
0
0
ENDTAB
0
TABLE
2
VIEW
5
6
100
AcDbSymbolTable
70
0
0
ENDTAB
0
TABLE
2
UCS
5
7
100
AcDbSymbolTable
70
0
0
ENDTAB
0
TABLE
2
APPID
5
9
100
AcDbSymbolTable
70
2
0
APPID
5
12
100
AcDbSymbolTableRecord
100
AcDbRegAppTableRecord
2
ACAD
70
0
0
ENDTAB
0
TABLE
2
DIMSTYLE
5
A
100
AcDbSymbolTable
70
1
0
ENDTAB
0
TABLE
2
BLOCK_RECORD
5
1
100
AcDbSymbolTable
70
1
0
BLOCK_RECORD
5
1F
100
AcDbSymbolTableRecord
100
AcDbBlockTableRecord
2
*MODEL_SPACE
0
BLOCK_RECORD
5
1B
100
AcDbSymbolTableRecord
100
AcDbBlockTableRecord
2
*PAPER_SPACE
0
ENDTAB
0
ENDSEC
0
SECTION
2
BLOCKS
0
BLOCK
5
20
100
AcDbEntity
100
AcDbBlockBegin
2
*MODEL_SPACE
0
ENDBLK
5
21
100
AcDbEntity
100
AcDbBlockEnd
0
BLOCK
5
1C
100
AcDbEntity
100
AcDbBlockBegin
2
*PAPER_SPACE
0
ENDBLK
5
1D
100
AcDbEntity
100
AcDbBlockEnd
0
ENDSEC
0
SECTION
2
ENTITIES
0
CIRCLE
5
100
100
AcDbEntity
8
0
100
AcDbCircle
10
-87.43630535053093
20
-11.853296177037114
30
0
40
20.950000000000006
210
0
220
-0
230
1
0
CIRCLE
5
101
100
AcDbEntity
8
0
100
AcDbCircle
10
-143.72561379791443
20
-57.675000000001297
30
0
40
1.0249999500000051
210
0
220
-0
230
1
0
CIRCLE
5
102
100
AcDbEntity
8
0
100
AcDbCircle
10
-33.174196972632913
20
25.932241163575611
30
0
40
1.024999949999996
210
0
220
-0
230
1
0
CIRCLE
5
103
100
AcDbEntity
8
0
100
AcDbCircle
10
-64.171511831664787
20
-70.17500000000129
30
0
40
1.0249999500000051
210
0
220
-0
230
1
0
CIRCLE
5
104
100
AcDbEntity
8
0
100
AcDbCircle
10
-143.72561379791446
20
-0.52500000000130598
30
0
40
1.0249999500000051
210
0
220
-0
230
1
0
CIRCLE
5
105
100
AcDbEntity
8
0
100
AcDbCircle
10
-103.56420435053045
20
5.593502822963333
30
0
40
1.0999999999999943
210
0
220
-0
230
1
0
LWPOLYLINE
5
106
100
AcDbEntity
8
0
100
AcDbPolyline
90
24
70
1
43
0.0
10
-45.975613797914534
20
-47.797313643429831
10
-29.975613797914633
20
-47.79731364342986
42
0.41421356237310686
10
-28.875613797914639
20
-46.697313643429823
10
-28.87561379791444
20
3.2677623590358973
42
-0.25588374856566015
10
-28.460344178312297
20
4.0260739429638548
42
0.057719022246310946
10
-8.4759714455482982
20
20.32170231372568
10
-8.469591348076122
20
20.327512386835053
10
-3.626345596729621
20
25.170758138181554
42
0.41421356237309576
10
-3.6263455967296454
20
28.989134756587802
10
-29.0114790413283
20
54.374268201186027
42
0.4142135623730947
10
-32.829855659735742
20
54.37426820118597
10
-38.787230291231474
20
48.416893569689911
42
-0.19891236737966123
10
-88.814722465040063
20
27.6948278197844
10
-116.28972246503281
20
27.694827819784521
42
0.41421356237309648
10
-118.98972246503284
20
24.994827819784469
10
-118.9897224650328
20
22.424999999999034
42
-0.41421356237309559
10
-121.2897224650328
20
20.124999999999005
10
-161.67561379791499
20
20.124999999999105
42
0.41421356237309648
10
-164.37561379791504
20
17.424999999999145
10
-164.37561379791526
20
-59.377739450814403
42
0.29250998844602966
10
-162.80732582145734
20
-61.829112106240416
42
0.16668475007301764
10
-48.887548189683145
20
-73.510027456150809
42
0.34886211407170642
10
-46.875613797914511
20
-70.977404539012227
10
-46.875613797914525
20
-48.697313643429823
42
-0.41421356237309503
0
ENDSEC
0
SECTION
2
OBJECTS
0
DICTIONARY
5
C
100
AcDbDictionary
3
ACAD_GROUP
350
D
3
ACAD_MLINESTYLE
350
17
0
DICTIONARY
5
D
100
AcDbDictionary
0
DICTIONARY
5
1A
330
C
100
AcDbDictionary
0
DICTIONARY
5
17
100
AcDbDictionary
0
ENDSEC
0
EOF
