0
SECTION
2
HEADER
9
$INSUNITS
70
4
9
$ACADVER
1
AC1014
9
$HANDSEED
5
FFFF
0
ENDSEC
0
SECTION
2
TABLES
0
TABLE
2
VPORT
5
8
100
AcDbSymbolTable
0
ENDTAB
0
TABLE
2
LTYPE
5
5
100
AcDbSymbolTable
0
LTYPE
5
14
100
AcDbSymbolTableRecord
100
AcDbLinetypeTableRecord
2
BYBLOCK
70
0
0
LTYPE
5
15
100
AcDbSymbolTableRecord
100
AcDbLinetypeTableRecord
2
BYLAYER
70
0
0
ENDTAB
0
TABLE
2
LAYER
5
2
100
AcDbSymbolTable
70
2
0
LAYER
5
50
100
AcDbSymbolTableRecord
100
AcDbLayerTableRecord
2
0
70
0
6
CONTINUOUS
0
ENDTAB
0
TABLE
2
STYLE
5
3
100
AcDbSymbolTable
70
1
0
STYLE
5
11
100
AcDbSymbolTableRecord
100
AcDbTextStyleTableRecord
2
STANDARD
70
0
0
ENDTAB
0
TABLE
2
VIEW
5
6
100
AcDbSymbolTable
70
0
0
ENDTAB
0
TABLE
2
UCS
5
7
100
AcDbSymbolTable
70
0
0
ENDTAB
0
TABLE
2
APPID
5
9
100
AcDbSymbolTable
70
2
0
APPID
5
12
100
AcDbSymbolTableRecord
100
AcDbRegAppTableRecord
2
ACAD
70
0
0
ENDTAB
0
TABLE
2
DIMSTYLE
5
A
100
AcDbSymbolTable
70
1
0
ENDTAB
0
TABLE
2
BLOCK_RECORD
5
1
100
AcDbSymbolTable
70
1
0
BLOCK_RECORD
5
1F
100
AcDbSymbolTableRecord
100
AcDbBlockTableRecord
2
*MODEL_SPACE
0
BLOCK_RECORD
5
1B
100
AcDbSymbolTableRecord
100
AcDbBlockTableRecord
2
*PAPER_SPACE
0
ENDTAB
0
ENDSEC
0
SECTION
2
BLOCKS
0
BLOCK
5
20
100
AcDbEntity
100
AcDbBlockBegin
2
*MODEL_SPACE
0
ENDBLK
5
21
100
AcDbEntity
100
AcDbBlockEnd
0
BLOCK
5
1C
100
AcDbEntity
100
AcDbBlockBegin
2
*PAPER_SPACE
0
ENDBLK
5
1D
100
AcDbEntity
100
AcDbBlockEnd
0
ENDSEC
0
SECTION
2
ENTITIES
0
LWPOLYLINE
5
100
100
AcDbEntity
8
0
100
AcDbPolyline
90
20
70
1
43
0.0
10
-46.354854824781228
20
-5.152072686889273
42
0.10296996536438573
10
-8.5455476156634003
20
20.393593765790126
10
-8.5386496785342736
20
20.399875412614215
10
-3.6970562748482916
20
25.241468816300205
42
0.41421356237309737
10
-3.6970562748483049
20
28.918424078469144
10
-29.082189719446951
20
54.303557523067369
42
0.41421356237309542
10
-32.759144981617084
20
54.303557523067312
10
-38.716519613113
20
48.34618289157148
42
-0.19891236737965962
10
-88.814722465040063
20
27.59482781978442
10
-116.28972246503281
20
27.594827819784523
42
0.41421356237309653
10
-118.88972246503286
20
24.994827819784469
10
-118.88972246503279
20
22.424999999999038
42
-0.41421356237309503
10
-121.2897224650328
20
20.024999999999004
10
-161.67561379791499
20
20.024999999999107
42
0.41421356237309681
10
-164.27561379791501
20
17.424999999999141
10
-164.27561379791524
20
-59.377739450814403
42
0.29250998844603437
10
-162.76541056132612
20
-61.738320526409822
42
0.16668475007301722
10
-48.91016609769202
20
-73.412618882414705
42
0.34886211407170353
10
-46.975613797914562
20
-70.977404539012227
10
-46.975613797914455
20
-6.0773706083940304
42
-0.30436341441968018
0
LWPOLYLINE
5
101
100
AcDbEntity
8
0
100
AcDbPolyline
90
4
70
1
43
0.0
10
-84.050613747914369
20
-9.4999999500012056
10
-84.050613747914753
20
4.4999999499989141
10
-70.050613847914519
20
4.499999949998621
10
-70.050613847914377
20
-9.4999999500013832
0
LWPOLYLINE
5
102
100
AcDbEntity
8
0
100
AcDbPolyline
90
4
70
1
43
0.0
10
-7.5507883030260015
20
27.079946447382607
10
-17.450283168927161
20
17.180451581481723
10
-27.349778034827814
20
27.079946447382774
10
-17.450283168926937
20
36.979441313283601
0
LWPOLYLINE
5
103
100
AcDbEntity
8
0
100
AcDbPolyline
90
4
70
1
43
0.0
10
-40.914621311370389
20
1.4789769576562861
10
-47.914621261370513
20
13.603332524036338
10
-35.790265694990843
20
20.603332474036343
10
-28.790265744990791
20
8.4789769076563104
0
LWPOLYLINE
5
104
100
AcDbEntity
8
0
100
AcDbPolyline
90
4
70
1
43
0.0
10
-141.20061374791442
20
-36.099999950001219
10
-141.2006137479147
20
-22.100000050001004
10
-127.20061384791443
20
-22.100000050001121
10
-127.2006138479145
20
-36.09999995000129
0
LWPOLYLINE
5
105
100
AcDbEntity
8
0
100
AcDbPolyline
90
4
70
1
43
0.0
10
-114.86472241503272
20
9.5698278697843353
10
-114.86472241503272
20
23.569827769784283
10
-100.86472251503281
20
23.569827769784265
10
-100.86472251503274
20
9.5698278697843016
0
LWPOLYLINE
5
106
100
AcDbEntity
8
0
100
AcDbPolyline
90
4
70
1
43
0.0
10
-84.050613747914753
20
-52.650000050001111
10
-70.050613847914519
20
-52.650000050001388
10
-70.050613847914377
20
-66.649999950001387
10
-84.050613747914369
20
-66.649999950001202
0
LWPOLYLINE
5
107
100
AcDbEntity
8
0
100
AcDbPolyline
90
4
70
1
43
0.0
10
-65.000613747914457
20
-6.9999999500012056
10
-65.000613747914713
20
6.9999999499989052
10
-51.000613847914657
20
6.9999999499985766
10
-51.000613847914458
20
-6.9999999500013121
0
LWPOLYLINE
5
108
100
AcDbEntity
8
0
100
AcDbPolyline
90
4
70
1
43
0.0
10
-122.15061374791478
20
-53.150000050001069
10
-108.1506138479147
20
-53.150000050001452
10
-108.15061384791443
20
-67.14999995000143
10
-122.15061374791445
20
-67.14999995000116
0
LWPOLYLINE
5
109
100
AcDbEntity
8
0
100
AcDbPolyline
90
4
70
1
43
0.0
10
-160.25061374791426
20
-55.149999950001174
10
-160.25061374791434
20
-41.150000050001331
10
-146.25061384791459
20
-41.150000050001495
10
-146.25061384791428
20
-55.149999950001373
0
LWPOLYLINE
5
110
100
AcDbEntity
8
0
100
AcDbPolyline
90
4
70
1
43
0.0
10
-127.20061384791443
20
-3.0500000500011204
10
-127.2006138479145
20
-17.049999950001286
10
-141.20061374791442
20
-17.049999950001222
10
-141.2006137479147
20
-3.0500000500009961
0
LWPOLYLINE
5
111
100
AcDbEntity
8
0
100
AcDbPolyline
90
4
70
1
43
0.0
10
-51.000613847914458
20
-64.149999950001316
10
-65.000613747914457
20
-64.149999950001217
10
-65.000613747914713
20
-50.150000050001111
10
-51.000613847914657
20
-50.150000050001431
0
CIRCLE
5
112
100
AcDbEntity
8
0
100
AcDbCircle
10
-143.72561379791443
20
-57.675000000001297
30
0
40
1.124999950000003
210
0
220
-0
230
1
0
LWPOLYLINE
5
113
100
AcDbEntity
8
0
100
AcDbPolyline
90
4
70
1
43
0.0
10
-146.25061384791428
20
2.0000000499986381
10
-160.25061374791426
20
2.0000000499988335
10
-160.25061374791434
20
15.999999949998687
10
-146.25061384791459
20
15.999999949998509
0
LWPOLYLINE
5
114
100
AcDbEntity
8
0
100
AcDbPolyline
90
4
70
1
43
0.0
10
-70.050613847914533
20
-14.550000050001376
10
-70.050613847914391
20
-28.549999950001389
10
-84.050613747914369
20
-28.549999950001204
10
-84.050613747914753
20
-14.550000050001088
0
LWPOLYLINE
5
115
100
AcDbEntity
8
0
100
AcDbPolyline
90
4
70
1
43
0.0
10
-127.2006138479145
20
-55.149999950001288
10
-141.20061374791442
20
-55.149999950001238
10
-141.2006137479147
20
-41.150000050001012
10
-127.20061384791443
20
-41.150000050001132
0
CIRCLE
5
116
100
AcDbEntity
8
0
100
AcDbCircle
10
-33.174196972632913
20
25.932241163575611
30
0
40
1.1249999499999985
210
0
220
-0
230
1
0
LWPOLYLINE
5
117
100
AcDbEntity
8
0
100
AcDbPolyline
90
4
70
1
43
0.0
10
-146.25061384791459
20
-22.100000050001501
10
-146.25061384791428
20
-36.099999950001376
10
-160.25061374791426
20
-36.09999995000117
10
-160.25061374791434
20
-22.100000050001324
0
LWPOLYLINE
5
118
100
AcDbEntity
8
0
100
AcDbPolyline
90
4
70
1
43
0.0
10
-103.10061374791462
20
-73.149999950001245
10
-103.10061374791479
20
-59.150000050001175
10
-89.100613847914843
20
-59.15000005000158
10
-89.100613847914616
20
-73.14999995000133
0
LWPOLYLINE
5
119
100
AcDbEntity
8
0
100
AcDbPolyline
90
7
70
1
43
0.0
10
-108.2441632388832
20
-15.036934048739317
42
0.00015699153193889442
10
-108.24215991958371
20
-15.050000050001437
10
-108.15061384791454
20
-15.050000050001442
10
-108.15061384791443
20
-29.049999950001425
10
-122.15061374791445
20
-29.049999950001162
10
-122.15061374791478
20
-15.05000005000106
10
-108.35772062910131
20
-15.050000050001442
42
0.057341226373506006
0
CIRCLE
5
120
100
AcDbEntity
8
0
100
AcDbCircle
10
-64.171511831664787
20
-70.17500000000129
30
0
40
1.124999950000003
210
0
220
-0
230
1
0
LWPOLYLINE
5
121
100
AcDbEntity
8
0
100
AcDbPolyline
90
4
70
1
43
0.0
10
-146.25061384791459
20
-3.0500000500014846
10
-146.25061384791428
20
-17.049999950001364
10
-160.25061374791426
20
-17.049999950001169
10
-160.25061374791434
20
-3.0500000500013158
0
LWPOLYLINE
5
122
100
AcDbEntity
8
0
100
AcDbPolyline
90
11
70
1
43
0.0
10
-108.15061379791513
20
-8.8150758095096862
42
0.19891236737966886
10
-108.06274583227108
20
-9.0272078438656678
10
-107.41856354239994
20
-9.6713901337368302
42
0.27610920555713719
10
-107.12001636914241
20
-9.7465426686995755
42
-4.5330281026062114
10
-108.50387992683189
20
-10.976145774275533
42
0.30810462667497845
10
-108.56687169833513
20
-10.644402321361252
10
-109.12340600405093
20
-10.08786801564545
42
0.19891236737965076
10
-109.33553803840688
20
-10.000000050001407
10
-122.15061374791445
20
-9.9999999500011594
10
-122.15061374791478
20
3.9999999499989425
10
-108.1506138479147
20
3.9999999499985606
0
CIRCLE
5
123
100
AcDbEntity
8
0
100
AcDbCircle
10
-143.72561379791446
20
-0.52500000000130598
30
0
40
1.124999950000003
210
0
220
-0
230
1
0
LWPOLYLINE
5
124
100
AcDbEntity
8
0
100
AcDbPolyline
90
4
70
1
43
0.0
10
-21.021172484629744
20
40.55033062898633
10
-30.92066735053092
20
30.65083576308546
10
-40.820162216431576
20
40.550330628986472
10
-30.920667350530682
20
50.449825494887328
0
LWPOLYLINE
5
125
100
AcDbEntity
8
0
100
AcDbPolyline
90
4
70
1
43
0.0
10
-89.100613847914843
20
-40.100000050001576
10
-89.100613847914616
20
-54.099999950001319
10
-103.10061374791462
20
-54.099999950001248
10
-103.10061374791479
20
-40.100000050001171
0
LWPOLYLINE
5
126
100
AcDbEntity
8
0
100
AcDbPolyline
90
4
70
1
43
0.0
10
-51.000613847914657
20
-31.100000050001437
10
-51.000613847914458
20
-45.099999950001319
10
-65.000613747914457
20
-45.099999950001219
10
-65.000613747914713
20
-31.1000000500011
0
LWPOLYLINE
5
127
100
AcDbEntity
8
0
100
AcDbPolyline
90
4
70
1
43
0.0
10
-45.315265694990778
20
37.101116416129962
10
-38.315265744990725
20
24.976760849749912
10
-50.439621311370324
20
17.976760899749891
10
-57.439621261370455
20
30.101116466129938
0
LWPOLYLINE
5
128
100
AcDbEntity
8
0
100
AcDbPolyline
90
4
70
1
43
0.0
10
-108.15061384791443
20
-48.099999950001418
10
-122.15061374791445
20
-48.099999950001155
10
-122.15061374791478
20
-34.100000050001071
10
-108.1506138479147
20
-34.100000050001441
0
LWPOLYLINE
5
129
100
AcDbEntity
8
0
100
AcDbPolyline
90
4
70
1
43
0.0
10
-127.20061384791443
20
15.999999949998882
10
-127.2006138479145
20
2.0000000499987181
10
-141.20061374791442
20
2.0000000499987802
10
-141.2006137479147
20
15.999999949999006
0
LWPOLYLINE
5
130
100
AcDbEntity
8
0
100
AcDbPolyline
90
4
70
1
43
0.0
10
-72.573774997978234
20
10.786421690478782
10
-76.197241603532191
20
24.309383161933479
10
-62.674280132077627
20
27.932849767487188
10
-59.050813526523896
20
14.409888296032252
0
LWPOLYLINE
5
131
100
AcDbEntity
8
0
100
AcDbPolyline
90
4
70
1
43
0.0
10
-103.10061374791482
20
-15.999999950001252
10
-103.10061374791479
20
-2.0000000500011605
10
-89.100613847914843
20
-2.0000000500015513
10
-89.100613847914616
20
-15.999999950001307
0
LWPOLYLINE
5
132
100
AcDbEntity
8
0
100
AcDbPolyline
90
4
70
1
43
0.0
10
-84.050613747914369
20
-47.599999950001212
10
-84.050613747914753
20
-33.6000000500011
10
-70.050613847914519
20
-33.600000050001391
10
-70.050613847914377
20
-47.59999995000139
0
LWPOLYLINE
5
133
100
AcDbEntity
8
0
100
AcDbPolyline
90
4
70
1
43
0.0
10
-65.000613747914457
20
-26.049999950001212
10
-65.000613747914713
20
-12.050000050001097
10
-51.000613847914657
20
-12.050000050001426
10
-51.000613847914458
20
-26.049999950001311
0
CIRCLE
5
134
100
AcDbEntity
8
0
100
AcDbCircle
10
-103.56420435053045
20
5.593502822963333
30
0
40
1.1999999999999922
210
0
220
-0
230
1
0
CIRCLE
5
135
100
AcDbEntity
8
0
100
AcDbCircle
10
-68.386305350530904
20
-11.853296177037629
30
0
40
2.1999999999999971
210
0
220
-0
230
1
0
LWPOLYLINE
5
136
100
AcDbEntity
8
0
100
AcDbPolyline
90
8
70
1
43
0.0
10
-88.636896784229577
20
-32.746820033495347
42
0.59537539129409223
10
-89.100613797915642
20
-32.998209650285098
10
-89.100613847914616
20
-35.049999950001315
10
-103.10061374791462
20
-35.049999950001251
10
-103.10061374791479
20
-21.050000050001177
10
-89.100613847914843
20
-21.050000050001568
10
-89.100613797915557
20
-28.808382703789029
42
0.59537539129413963
10
-88.63689678422945
20
-29.05977232057878
42
-1.8446148238250526
0
LWPOLYLINE
5
137
100
AcDbEntity
8
0
100
AcDbPolyline
90
8
70
1
43
0.0
10
-88.665837968685096
20
9.0210528961650667
42
0.74010780607183269
10
-88.833501507524346
20
9.5698277697834584
10
-95.814722415032634
20
9.5698278697845289
10
-95.814722415033003
20
23.569827769784762
10
-81.814722515032997
20
23.569827769784052
10
-81.814722515032642
20
9.5698278697842731
10
-86.039109193536248
20
9.5698277697834282
42
0.74010780607181792
10
-86.206772732375541
20
9.0210528961649583
42
-3.273072233936885
0
ENDSEC
0
SECTION
2
OBJECTS
0
DICTIONARY
5
C
100
AcDbDictionary
3
ACAD_GROUP
350
D
3
ACAD_MLINESTYLE
350
17
0
DICTIONARY
5
D
100
AcDbDictionary
0
DICTIONARY
5
1A
330
C
100
AcDbDictionary
0
DICTIONARY
5
17
100
AcDbDictionary
0
ENDSEC
0
EOF
