0
SECTION
2
HEADER
9
$INSUNITS
70
4
9
$ACADVER
1
AC1014
9
$HANDSEED
5
FFFF
0
ENDSEC
0
SECTION
2
TABLES
0
TABLE
2
VPORT
5
8
100
AcDbSymbolTable
0
ENDTAB
0
TABLE
2
LTYPE
5
5
100
AcDbSymbolTable
0
LTYPE
5
14
100
AcDbSymbolTableRecord
100
AcDbLinetypeTableRecord
2
BYBLOCK
70
0
0
LTYPE
5
15
100
AcDbSymbolTableRecord
100
AcDbLinetypeTableRecord
2
BYLAYER
70
0
0
ENDTAB
0
TABLE
2
LAYER
5
2
100
AcDbSymbolTable
70
2
0
LAYER
5
50
100
AcDbSymbolTableRecord
100
AcDbLayerTableRecord
2
0
70
0
6
CONTINUOUS
0
ENDTAB
0
TABLE
2
STYLE
5
3
100
AcDbSymbolTable
70
1
0
STYLE
5
11
100
AcDbSymbolTableRecord
100
AcDbTextStyleTableRecord
2
STANDARD
70
0
0
ENDTAB
0
TABLE
2
VIEW
5
6
100
AcDbSymbolTable
70
0
0
ENDTAB
0
TABLE
2
UCS
5
7
100
AcDbSymbolTable
70
0
0
ENDTAB
0
TABLE
2
APPID
5
9
100
AcDbSymbolTable
70
2
0
APPID
5
12
100
AcDbSymbolTableRecord
100
AcDbRegAppTableRecord
2
ACAD
70
0
0
ENDTAB
0
TABLE
2
DIMSTYLE
5
A
100
AcDbSymbolTable
70
1
0
ENDTAB
0
TABLE
2
BLOCK_RECORD
5
1
100
AcDbSymbolTable
70
1
0
BLOCK_RECORD
5
1F
100
AcDbSymbolTableRecord
100
AcDbBlockTableRecord
2
*MODEL_SPACE
0
BLOCK_RECORD
5
1B
100
AcDbSymbolTableRecord
100
AcDbBlockTableRecord
2
*PAPER_SPACE
0
ENDTAB
0
ENDSEC
0
SECTION
2
BLOCKS
0
BLOCK
5
20
100
AcDbEntity
100
AcDbBlockBegin
2
*MODEL_SPACE
0
ENDBLK
5
21
100
AcDbEntity
100
AcDbBlockEnd
0
BLOCK
5
1C
100
AcDbEntity
100
AcDbBlockBegin
2
*PAPER_SPACE
0
ENDBLK
5
1D
100
AcDbEntity
100
AcDbBlockEnd
0
ENDSEC
0
SECTION
2
ENTITIES
0
CIRCLE
5
100
100
AcDbEntity
8
0
100
AcDbCircle
10
-103.56420435053045
20
5.593502822963333
30
0
40
1.1999999999999922
210
0
220
-0
230
1
0
CIRCLE
5
101
100
AcDbEntity
8
0
100
AcDbCircle
10
-64.171511831664787
20
-70.17500000000129
30
0
40
1.124999950000003
210
0
220
-0
230
1
0
CIRCLE
5
102
100
AcDbEntity
8
0
100
AcDbCircle
10
-143.72561379791443
20
-57.675000000001297
30
0
40
1.124999950000003
210
0
220
-0
230
1
0
CIRCLE
5
103
100
AcDbEntity
8
0
100
AcDbCircle
10
-33.174196972632913
20
25.932241163575611
30
0
40
1.1249999499999985
210
0
220
-0
230
1
0
CIRCLE
5
104
100
AcDbEntity
8
0
100
AcDbCircle
10
-143.72561379791446
20
-0.52500000000130598
30
0
40
1.124999950000003
210
0
220
-0
230
1
0
LWPOLYLINE
5
105
100
AcDbEntity
8
0
100
AcDbPolyline
90
24
70
1
43
0.0
10
-29.97561379791463
20
-47.697313643429865
42
0.41421356237310414
10
-28.975613797914637
20
-46.69731364342983
10
-28.975613797914438
20
3.2677623590358973
42
-0.25588374856565954
10
-28.514203109467608
20
4.1103307856225157
42
0.057725823591199037
10
-8.5455476156633292
20
20.393593765790108
10
-8.5386496785342736
20
20.399875412614215
10
-3.6970562748483005
20
25.241468816300205
42
0.41421356237309809
10
-3.6970562748483049
20
28.918424078469144
10
-29.082189719446951
20
54.303557523067369
42
0.41421356237309576
10
-32.759144981617084
20
54.303557523067312
10
-38.716519613112808
20
48.346182891571274
42
-0.19891236737966123
10
-88.814722465040049
20
27.594827819784413
10
-116.28972246503281
20
27.594827819784523
42
0.41421356237309653
10
-118.88972246503286
20
24.994827819784469
10
-118.8897224650328
20
22.424999999999038
42
-0.41421356237309176
10
-121.2897224650328
20
20.024999999999004
10
-161.67561379791499
20
20.024999999999107
42
0.41421356237309681
10
-164.27561379791501
20
17.424999999999141
10
-164.27561379791524
20
-59.377739450814403
42
0.29250998844603016
10
-162.76541056132615
20
-61.738320526409822
42
0.16668475007301761
10
-48.910166097692041
20
-73.412618882414719
42
0.34886211407170692
10
-46.975613797914562
20
-70.977404539012227
10
-46.975613797914512
20
-48.697313643429823
42
-0.41421356237309243
10
-45.975613797914534
20
-47.697313643429837
0
CIRCLE
5
106
100
AcDbEntity
8
0
100
AcDbCircle
10
-87.43630535053093
20
-11.853296177037114
30
0
40
21.050000000000004
210
0
220
-0
230
1
0
ENDSEC
0
SECTION
2
OBJECTS
0
DICTIONARY
5
C
100
AcDbDictionary
3
ACAD_GROUP
350
D
3
ACAD_MLINESTYLE
350
17
0
DICTIONARY
5
D
100
AcDbDictionary
0
DICTIONARY
5
1A
330
C
100
AcDbDictionary
0
DICTIONARY
5
17
100
AcDbDictionary
0
ENDSEC
0
EOF
